<svg width="17" height="19" viewBox="0 0 17 19" fill="none" xmlns="http://www.w3.org/2000/svg">
<path d="M10.2313 4.34191L8.60887 7.15197C8.4103 7.49589 8.311 7.66789 8.17611 7.80251C8.05663 7.92173 7.91707 8.01913 7.76389 8.09009C7.59099 8.17023 7.39534 8.20402 7.00399 8.27166L3.58537 8.86251C3.19403 8.93015 2.99837 8.96394 2.82547 9.04408C2.67229 9.11504 2.53274 9.21244 2.41326 9.33166C2.27836 9.46628 2.17906 9.63828 1.9805 9.9822L1.87194 10.1702C1.46821 10.8695 1.26633 11.2192 1.24823 11.5648C1.2323 11.8688 1.31301 12.1702 1.47886 12.4255C1.66737 12.7158 2.01701 12.9176 2.71628 13.3214L9.95806 17.5024C10.6573 17.9061 11.007 18.108 11.3526 18.1261C11.6567 18.1421 11.958 18.0613 12.2133 17.8955C12.5036 17.707 12.7055 17.3573 13.1092 16.6581L13.2178 16.47C13.4163 16.1261 13.5156 15.9541 13.5647 15.77C13.6083 15.6069 13.6229 15.4374 13.6077 15.2692C13.5906 15.0794 13.5221 14.8931 13.385 14.5203L12.1874 11.2643C12.0503 10.8916 11.9817 10.7052 11.9646 10.5154C11.9495 10.3473 11.9641 10.1777 12.0076 10.0146C12.0568 9.8305 12.1561 9.6585 12.3546 9.31458L13.977 6.50452M9.79425 4.0896L14.414 6.75682C14.5888 6.85775 14.6762 6.90821 14.7627 6.91275C14.8387 6.91674 14.914 6.89656 14.9778 6.8551C15.0504 6.80797 15.1009 6.72056 15.2018 6.54574L16.0668 5.04744C16.1678 4.87262 16.2182 4.78521 16.2228 4.69879C16.2268 4.62279 16.2066 4.54747 16.1651 4.48363C16.118 4.41104 16.0306 4.36058 15.8558 4.25966L11.236 1.59244C11.0612 1.4915 10.9738 1.44104 10.8873 1.43651C10.8113 1.43252 10.736 1.4527 10.6722 1.49416C10.5996 1.54129 10.5491 1.6287 10.4482 1.80352L9.58317 3.30182C9.48223 3.47664 9.43177 3.56405 9.42724 3.65047C9.42325 3.72648 9.44344 3.8018 9.48489 3.86563C9.53203 3.93821 9.61943 3.98867 9.79425 4.0896ZM4.08145 9.9476L12.1972 14.6333C12.4874 14.8007 12.6324 14.8845 12.7391 14.9781C13.1776 15.3626 13.3412 15.9733 13.1538 16.5255C13.1081 16.6599 13.0244 16.805 12.8569 17.0951C12.6894 17.3852 12.6057 17.5302 12.5121 17.637C12.1276 18.0754 11.5168 18.2391 10.9647 18.0516C10.8302 18.0059 10.6852 17.9222 10.3951 17.7547L2.27927 13.0691C1.98919 12.9016 1.84415 12.8178 1.73738 12.7242C1.29896 12.3398 1.13531 11.729 1.32276 11.1768C1.36841 11.0424 1.45214 10.8973 1.61963 10.6072C1.78713 10.3171 1.87085 10.1721 1.96448 10.0653C2.34897 9.62691 2.9597 9.46327 3.51188 9.65072C3.64633 9.69638 3.79137 9.78012 4.08145 9.9476Z" stroke="#333333" stroke-linecap="round" stroke-linejoin="round"/>
</svg>
