<svg width="17" height="18" viewBox="0 0 17 18" fill="none" xmlns="http://www.w3.org/2000/svg">
<path d="M1 17H8.5M7.66667 4.40163C8.19933 4.27001 8.75783 4.2 9.33333 4.2C13.0152 4.2 16 7.06538 16 10.6C16 13.2859 14.2765 15.5854 11.8333 16.5348M3.08333 9.8H6.41667C6.80388 9.8 6.9975 9.8 7.1585 9.83072C7.81967 9.95696 8.3365 10.4531 8.468 11.0878C8.5 11.2424 8.5 11.4282 8.5 11.8C8.5 12.1718 8.5 12.3576 8.468 12.5122C8.3365 13.1469 7.81967 13.643 7.1585 13.7693C6.9975 13.8 6.80388 13.8 6.41667 13.8H3.08333C2.69612 13.8 2.50252 13.8 2.34152 13.7693C1.68037 13.643 1.16353 13.1469 1.03202 12.5122C1 12.3576 1 12.1718 1 11.8C1 11.4282 1 11.2424 1.03202 11.0878C1.16353 10.4531 1.68037 9.95696 2.34152 9.83072C2.50252 9.8 2.69612 9.8 3.08333 9.8ZM1.83333 3.8V9.8H7.66667V3.8C7.66667 2.2536 6.36083 1 4.75 1C3.13917 1 1.83333 2.2536 1.83333 3.8Z" stroke="#333333" stroke-linecap="round" stroke-linejoin="round"/>
</svg>
