<svg width="17" height="19" viewBox="0 0 17 19" fill="none" xmlns="http://www.w3.org/2000/svg">
<path d="M11.5235 1.82303L9.55511 5.23235C9.46338 5.39123 9.41752 5.47066 9.35682 5.51987C9.29956 5.5663 9.24435 5.59211 9.17201 5.60629C9.09532 5.62131 8.99524 5.60388 8.79508 5.56902C6.25045 5.1258 3.5871 6.27734 2.22051 8.64434C0.471062 11.6745 1.50926 15.5492 4.53943 17.2986C7.56957 19.0481 11.4443 18.0099 13.1937 14.9797C14.5603 12.6127 14.2259 9.73044 12.5697 7.74831C12.4395 7.59241 12.3743 7.51442 12.349 7.44051C12.3251 7.37077 12.3198 7.31005 12.3314 7.23726C12.3437 7.16009 12.3896 7.08066 12.4813 6.92178L14.4497 3.51247M10.4262 1.18944L15.547 4.14595" stroke="#1F69BF" stroke-linecap="round" stroke-linejoin="round"/>
</svg>
