<svg width="15" height="15" viewBox="0 0 15 15" fill="none" xmlns="http://www.w3.org/2000/svg">
<path d="M11.2367 9.94789C11.0382 10.1723 10.8298 10.3941 10.6119 10.6119C7.46106 13.7629 3.51344 14.9239 1.79475 13.2053C0.616471 12.0269 0.791703 9.80105 2.0337 7.50243M3.73629 5.08268C3.94292 4.84774 4.16028 4.61581 4.38805 4.38805C7.53896 1.23713 11.4865 0.076078 13.2053 1.79475C14.3844 2.97385 14.208 5.20201 12.9637 7.50228M10.6119 4.38805C13.7629 7.53896 14.9239 11.4865 13.2053 13.2053C11.4865 14.9239 7.53896 13.7629 4.38805 10.6119C1.23713 7.46106 0.076078 3.51344 1.79475 1.79475C3.51344 0.076078 7.46106 1.23713 10.6119 4.38805ZM8.21825 7.48468C8.21825 7.88979 7.88979 8.21817 7.48475 8.21817C7.07964 8.21817 6.75126 7.88979 6.75126 7.48468C6.75126 7.07957 7.07964 6.75119 7.48475 6.75119C7.88979 6.75119 8.21825 7.07957 8.21825 7.48468Z" stroke="#333333" stroke-linecap="round" stroke-linejoin="round"/>
</svg>
