<svg width="12" height="13" viewBox="0 0 12 13" fill="none" xmlns="http://www.w3.org/2000/svg">
<path fill-rule="evenodd" clip-rule="evenodd" d="M5.14286 10.2015C7.42156 10.2015 9.26881 8.35423 9.26881 6.07554C9.26881 3.79684 7.42156 1.94959 5.14286 1.94959C2.86416 1.94959 1.01691 3.79684 1.01691 6.07554C1.01691 8.35423 2.86416 10.2015 5.14286 10.2015ZM5.14286 11.2184C7.98318 11.2184 10.2857 8.91586 10.2857 6.07554C10.2857 3.23521 7.98318 0.932678 5.14286 0.932678C2.30254 0.932678 0 3.23521 0 6.07554C0 8.91586 2.30254 11.2184 5.14286 11.2184Z" fill="#333333"/>
<path d="M8.22096 8.99211C8.41525 8.79782 8.73026 8.79782 8.92455 8.99211L11.6482 11.7158C11.8425 11.9101 11.8425 12.2251 11.6482 12.4194C11.4539 12.6137 11.1389 12.6137 10.9446 12.4194L8.22096 9.6957C8.02667 9.50141 8.02667 9.1864 8.22096 8.99211Z" fill="#333333"/>
</svg>
